<svg xmlns="http://www.w3.org/2000/svg" width="420" height="260" viewBox="0 0 420 260" role="img" aria-label="Настольный набор орехового цвета">
  <rect width="420" height="260" fill="#fff"/>
  <g transform="translate(42 58)">
    <path d="M90 92h176l24 56H66z" fill="#20242b"/>
    <path d="M72 92h216l15 20H58z" fill="#b77848"/>
    <g fill="#8a5737">
      <path d="M0 30h82v56H0z"/>
      <path d="M10 40h62v35H10z" fill="#dbe4ea"/>
      <path d="M286 53h48v40h-48z"/>
      <path d="M296 31h52v28h-52z"/>
    </g>
    <g fill="#b77848">
      <path d="M86 50h96v12H86z"/>
      <path d="M236 42h13v66h-13z" transform="rotate(18 242.5 75)"/>
      <path d="M278 43h13v66h-13z" transform="rotate(18 284.5 76)"/>
    </g>
    <rect x="128" y="116" width="54" height="34" fill="#f8fafc" transform="rotate(-13 155 133)"/>
    <rect x="70" y="110" width="58" height="24" fill="#d9c0a4" transform="rotate(-18 99 122)"/>
    <path d="M135 132c15 10 25 18 34 24" fill="none" stroke="#1f252d" stroke-width="2"/>
  </g>
</svg>
