<svg xmlns="http://www.w3.org/2000/svg" width="420" height="260" viewBox="0 0 420 260" role="img" aria-label="Настольный набор с лотком">
  <rect width="420" height="260" fill="#fff"/>
  <g transform="translate(52 55)">
    <g fill="#a21e2c">
      <path d="M0 45h90v68H0z"/>
      <path d="M10 56h70v44H10z" fill="#c89162"/>
      <path d="M122 122h72v28h-72z" transform="rotate(-12 158 136)"/>
      <path d="M246 56h52v44h-52z"/>
      <path d="M262 33h20v24h-20z"/>
    </g>
    <g fill="#7e111a">
      <path d="M122 55h96v12h-96z"/>
      <path d="M107 143h65v16h-65z" transform="rotate(-18 139 151)"/>
      <path d="M196 45h12v70h-12z" transform="rotate(18 202 80)"/>
      <path d="M236 45h12v70h-12z" transform="rotate(18 242 80)"/>
    </g>
    <ellipse cx="52" cy="125" rx="24" ry="10" fill="#d7dde2"/>
    <path d="M32 124c13 7 28 7 42 0" fill="none" stroke="#34404a" stroke-width="2"/>
  </g>
</svg>
