<svg xmlns="http://www.w3.org/2000/svg" width="420" height="260" viewBox="0 0 420 260" role="img" aria-label="Настольный набор красного цвета">
  <rect width="420" height="260" fill="#fff"/>
  <g transform="translate(42 58)">
    <path d="M90 92h176l24 56H66z" fill="#262b32"/>
    <path d="M75 88h205l12 18H63z" fill="#8d1420"/>
    <g fill="#a41d2a">
      <path d="M0 30h82v56H0z"/>
      <path d="M10 40h62v35H10z" fill="#f7f2f0"/>
      <path d="M286 53h48v40h-48z"/>
      <path d="M298 30h22v23h-22z"/>
      <path d="M315 28h20v25h-20z"/>
      <path d="M54 112h64v22H54z" transform="rotate(-18 86 123)"/>
    </g>
    <g fill="#7e111a">
      <path d="M86 50h96v12H86z"/>
      <path d="M236 42h13v66h-13z" transform="rotate(18 242.5 75)"/>
      <path d="M278 43h13v66h-13z" transform="rotate(18 284.5 76)"/>
    </g>
    <rect x="122" y="118" width="58" height="38" fill="#f8fafc" transform="rotate(-11 151 137)"/>
    <path d="M137 130c15 16 28 17 38 26" fill="none" stroke="#1f252d" stroke-width="2"/>
  </g>
</svg>
